<?xml version="1.0" encoding="utf-8"?>
<!-- Generator: Adobe Illustrator 22.0.0, SVG Export Plug-In . SVG Version: 6.00 Build 0)  -->
<svg version="1.1" id="Layer_1" xmlns="http://www.w3.org/2000/svg" xmlns:xlink="http://www.w3.org/1999/xlink" x="0px" y="0px"
	 viewBox="0 0 612 96.8" style="enable-background:new 0 0 612 96.8;" xml:space="preserve">
<style type="text/css">
	.st0{fill:#56B4D9;}
	.st1{fill:#FFFFFF;}
</style>
<path class="st0" d="M0,0h612v96.6H0V0z"/>
<g>
	<path class="st1" d="M183.2,60.6c-2.2,1.3-4.6,1.9-7.1,1.9c-1.6,0-3-0.3-4.2-0.8c-1.3-0.5-2.3-1.3-3.2-2.3c-0.9-1-1.6-2.1-2-3.5
		c-0.5-1.3-0.7-2.8-0.7-4.4c0-1.1,0.1-2.1,0.3-3.1c0.2-1,0.6-1.9,1-2.8c0.4-0.9,1-1.6,1.6-2.3c0.6-0.7,1.4-1.3,2.2-1.8
		c0.8-0.5,1.7-0.9,2.7-1.2c1-0.3,2.1-0.4,3.2-0.4c2.1,0,4.1,0.4,5.8,1.1v2.2c-1.9-1-3.9-1.5-6-1.5c-1.3,0-2.5,0.2-3.6,0.7
		c-1.1,0.5-2,1.1-2.7,2c-0.8,0.8-1.3,1.9-1.7,3c-0.4,1.2-0.6,2.4-0.6,3.8c0,1.3,0.2,2.6,0.5,3.7c0.4,1.1,0.9,2.1,1.6,2.9
		c0.7,0.8,1.6,1.5,2.6,1.9c1,0.5,2.2,0.7,3.6,0.7c1.8,0,3.4-0.4,4.8-1.1v-6.6h-4.9v-1.8h6.9L183.2,60.6L183.2,60.6z"/>
	<path class="st1" d="M188.8,54.7c0,0.9,0.1,1.8,0.4,2.6s0.6,1.4,1,1.9s1,0.9,1.7,1.2c0.7,0.3,1.4,0.4,2.2,0.4
		c1.7,0,3.4-0.6,4.9-1.8v1.9c-1.5,1.1-3.3,1.6-5.4,1.6c-1,0-2-0.2-2.8-0.5c-0.8-0.4-1.6-0.9-2.2-1.6c-0.6-0.7-1.1-1.5-1.4-2.6
		c-0.3-1-0.5-2.2-0.5-3.5c0-1.2,0.2-2.2,0.5-3.2c0.4-1,0.8-1.8,1.5-2.6c0.6-0.7,1.4-1.3,2.2-1.7c0.9-0.4,1.8-0.6,2.8-0.6
		c1,0,1.9,0.2,2.6,0.5s1.4,0.8,1.9,1.5s0.9,1.4,1.2,2.4c0.3,0.9,0.4,2,0.4,3.1v1L188.8,54.7L188.8,54.7z M198,53
		c0-1.6-0.4-2.9-1.1-3.8c-0.7-0.9-1.8-1.3-3.1-1.3c-0.7,0-1.3,0.1-1.8,0.3c-0.6,0.2-1.1,0.6-1.5,1c-0.4,0.4-0.8,1-1.1,1.6
		c-0.3,0.6-0.5,1.3-0.6,2.1H198z"/>
	<path class="st1" d="M214.3,62.1v-8.9c0-3.5-1.3-5.3-3.8-5.3c-0.7,0-1.3,0.1-1.9,0.4c-0.6,0.3-1.1,0.6-1.5,1.1
		c-0.4,0.5-0.7,1-1,1.7c-0.2,0.6-0.4,1.4-0.4,2.1v8.9h-1.9V46.6h1.9v2.7h0.1c1.1-2,2.9-3.1,5.2-3.1c1.7,0,3,0.5,3.9,1.6
		s1.3,2.7,1.3,4.8v9.4L214.3,62.1L214.3,62.1z"/>
	<path class="st1" d="M221.8,54.7c0,0.9,0.1,1.8,0.4,2.6s0.6,1.4,1,1.9s1,0.9,1.7,1.2c0.7,0.3,1.4,0.4,2.2,0.4
		c1.7,0,3.4-0.6,4.9-1.8v1.9c-1.5,1.1-3.3,1.6-5.4,1.6c-1,0-2-0.2-2.8-0.5c-0.8-0.4-1.6-0.9-2.2-1.6c-0.6-0.7-1.1-1.5-1.4-2.6
		c-0.3-1-0.5-2.2-0.5-3.5c0-1.2,0.2-2.2,0.5-3.2c0.4-1,0.8-1.8,1.5-2.6c0.6-0.7,1.4-1.3,2.2-1.7c0.9-0.4,1.8-0.6,2.8-0.6
		c1,0,1.9,0.2,2.6,0.5s1.4,0.8,1.9,1.5s0.9,1.4,1.2,2.4c0.3,0.9,0.4,2,0.4,3.1v1L221.8,54.7L221.8,54.7z M231,53
		c0-1.6-0.4-2.9-1.1-3.8c-0.7-0.9-1.8-1.3-3.1-1.3c-0.7,0-1.3,0.1-1.8,0.3c-0.6,0.2-1.1,0.6-1.5,1c-0.4,0.4-0.8,1-1.1,1.6
		c-0.3,0.6-0.5,1.3-0.6,2.1H231z"/>
	<path class="st1" d="M244.5,48.6c-0.5-0.3-1-0.5-1.8-0.5c-0.5,0-1,0.1-1.4,0.3c-0.4,0.2-0.7,0.5-1,0.8s-0.6,0.7-0.8,1.2
		c-0.2,0.4-0.4,0.9-0.5,1.4s-0.2,1-0.3,1.4c-0.1,0.5-0.1,0.9-0.1,1.4v7.6h-1.9V46.6h1.9v3.3h0.1c0.2-0.6,0.4-1.1,0.7-1.5
		c0.3-0.4,0.6-0.8,1-1.1c0.4-0.3,0.8-0.5,1.2-0.7c0.4-0.2,0.9-0.2,1.4-0.2c0.3,0,0.6,0,0.8,0.1c0.2,0,0.5,0.1,0.7,0.2L244.5,48.6
		L244.5,48.6z"/>
	<path class="st1" d="M256.2,62.1v-2.8h-0.1c-0.5,1-1.2,1.8-2.1,2.3s-1.9,0.8-3,0.8c-0.7,0-1.4-0.1-2-0.3c-0.6-0.2-1.1-0.5-1.5-0.9
		c-0.4-0.4-0.7-0.9-1-1.4c-0.2-0.5-0.3-1.1-0.3-1.8c0-1.4,0.4-2.5,1.3-3.4c0.9-0.8,2.2-1.4,3.9-1.6l4.7-0.7c0-3-1.2-4.5-3.5-4.5
		c-1.8,0-3.5,0.7-5,2v-2.1c0.3-0.2,0.7-0.4,1.1-0.6c0.4-0.2,0.8-0.3,1.3-0.5c0.5-0.1,0.9-0.2,1.4-0.3c0.5-0.1,0.9-0.1,1.4-0.1
		c1.7,0,3,0.5,3.9,1.5c0.9,1,1.3,2.4,1.3,4.3v10.1H256.2z M252.3,54.6c-0.7,0.1-1.3,0.2-1.8,0.4c-0.5,0.2-0.9,0.4-1.2,0.6
		c-0.3,0.3-0.6,0.6-0.7,1c-0.2,0.4-0.2,0.8-0.2,1.4c0,0.4,0.1,0.8,0.2,1.1c0.1,0.4,0.4,0.7,0.6,0.9c0.3,0.3,0.6,0.5,1,0.6
		s0.9,0.2,1.4,0.2c0.7,0,1.3-0.1,1.9-0.4s1.1-0.6,1.5-1.1c0.4-0.5,0.7-1,1-1.7c0.2-0.6,0.4-1.3,0.4-2.1V54L252.3,54.6z"/>
	<path class="st1" d="M273.7,62.1v-2.7h-0.1c-0.5,1-1.2,1.7-2.2,2.3c-1,0.5-2,0.8-3.2,0.8c-1,0-1.8-0.2-2.6-0.5
		c-0.8-0.4-1.5-0.9-2-1.6s-1-1.5-1.3-2.5c-0.3-1-0.5-2-0.5-3.3c0-1.3,0.2-2.4,0.5-3.4c0.3-1,0.8-1.9,1.4-2.7
		c0.6-0.7,1.4-1.3,2.2-1.7c0.9-0.4,1.8-0.6,2.9-0.6c2.2,0,3.8,0.9,4.8,2.7h0.1v-9.8h1.9v22.9H273.7z M273.7,52.8
		c0-0.7-0.1-1.3-0.3-1.9c-0.2-0.6-0.6-1.1-1-1.5c-0.4-0.4-0.9-0.8-1.5-1c-0.6-0.3-1.2-0.4-1.9-0.4c-0.8,0-1.5,0.2-2.1,0.5
		c-0.6,0.3-1.2,0.7-1.7,1.3c-0.5,0.6-0.8,1.3-1.1,2.1c-0.3,0.8-0.4,1.7-0.4,2.8c0,1,0.1,1.9,0.3,2.6c0.2,0.8,0.6,1.4,1,2
		c0.4,0.5,0.9,0.9,1.5,1.2c0.6,0.3,1.3,0.4,2,0.4c0.8,0,1.5-0.1,2.1-0.4c0.6-0.3,1.2-0.7,1.6-1.2c0.4-0.5,0.8-1.1,1-1.7
		s0.4-1.4,0.4-2.1V52.8L273.7,52.8z"/>
	<path class="st1" d="M287,62.5c-1.1,0-2.2-0.2-3.1-0.6c-0.9-0.4-1.7-0.9-2.3-1.6c-0.6-0.7-1.1-1.5-1.5-2.5c-0.3-1-0.5-2.1-0.5-3.3
		c0-1.3,0.2-2.4,0.5-3.5c0.4-1,0.9-1.9,1.6-2.6c0.7-0.7,1.5-1.3,2.4-1.6c0.9-0.4,2-0.6,3.2-0.6c1.1,0,2.1,0.2,3,0.6s1.7,0.9,2.3,1.6
		c0.6,0.7,1.1,1.5,1.4,2.5s0.5,2.1,0.5,3.4c0,1.2-0.2,2.3-0.5,3.3c-0.3,1-0.8,1.9-1.5,2.6c-0.6,0.7-1.4,1.3-2.4,1.7
		C289.2,62.3,288.2,62.5,287,62.5z M287.1,47.9c-0.8,0-1.6,0.1-2.3,0.4c-0.7,0.3-1.3,0.7-1.8,1.3c-0.5,0.6-0.9,1.2-1.1,2.1
		c-0.3,0.8-0.4,1.7-0.4,2.8c0,1,0.1,1.8,0.4,2.6c0.3,0.8,0.6,1.4,1.1,2c0.5,0.6,1.1,1,1.7,1.3c0.7,0.3,1.5,0.4,2.3,0.4
		c0.9,0,1.6-0.1,2.3-0.4c0.7-0.3,1.2-0.7,1.7-1.3c0.5-0.5,0.8-1.2,1.1-2c0.2-0.8,0.4-1.7,0.4-2.7c0-2.1-0.5-3.7-1.4-4.8
		C290.2,48.5,288.9,47.9,287.1,47.9z"/>
	<path class="st1" d="M306.1,48.6c-0.5-0.3-1-0.5-1.8-0.5c-0.5,0-1,0.1-1.4,0.3c-0.4,0.2-0.7,0.5-1,0.8c-0.3,0.3-0.6,0.7-0.8,1.2
		c-0.2,0.4-0.4,0.9-0.5,1.4s-0.2,1-0.3,1.4c-0.1,0.5-0.1,0.9-0.1,1.4v7.6h-1.9V46.6h1.9v3.3h0.1c0.2-0.6,0.4-1.1,0.7-1.5
		c0.3-0.4,0.6-0.8,1-1.1c0.4-0.3,0.8-0.5,1.2-0.7c0.4-0.2,0.9-0.2,1.4-0.2c0.3,0,0.6,0,0.8,0.1c0.2,0,0.5,0.1,0.7,0.2L306.1,48.6
		L306.1,48.6z"/>
	<path class="st1" d="M332.3,61.3c-1.7,0.8-3.6,1.2-5.7,1.2c-1.5,0-2.9-0.3-4.2-0.8c-1.3-0.5-2.3-1.3-3.2-2.2c-0.9-1-1.6-2.1-2-3.4
		c-0.5-1.3-0.7-2.8-0.7-4.3c0-1.6,0.3-3.2,0.8-4.6c0.5-1.4,1.2-2.6,2.2-3.7c0.9-1,2.1-1.9,3.4-2.5c1.3-0.6,2.9-0.9,4.5-0.9
		c1.8,0,3.5,0.3,5,0.8v2.1c-1.6-0.8-3.2-1.2-5-1.2c-1.4,0-2.6,0.2-3.7,0.7c-1.1,0.5-2,1.2-2.8,2c-0.7,0.9-1.3,1.9-1.7,3.1
		c-0.4,1.2-0.6,2.5-0.6,3.9c0,1.3,0.2,2.4,0.5,3.5c0.4,1.1,0.9,2.1,1.6,2.9c0.7,0.8,1.6,1.5,2.6,2s2.2,0.7,3.6,0.7
		c2.1,0,3.9-0.4,5.5-1.3L332.3,61.3L332.3,61.3z"/>
	<path class="st1" d="M343,62.5c-1.1,0-2.2-0.2-3.1-0.6c-0.9-0.4-1.7-0.9-2.3-1.6c-0.6-0.7-1.1-1.5-1.5-2.5c-0.3-1-0.5-2.1-0.5-3.3
		c0-1.3,0.2-2.4,0.5-3.5c0.4-1,0.9-1.9,1.6-2.6c0.7-0.7,1.5-1.3,2.4-1.6c0.9-0.4,2-0.6,3.2-0.6c1.1,0,2.1,0.2,3,0.6s1.7,0.9,2.3,1.6
		c0.6,0.7,1.1,1.5,1.4,2.5s0.5,2.1,0.5,3.4c0,1.2-0.2,2.3-0.5,3.3c-0.3,1-0.8,1.9-1.5,2.6c-0.6,0.7-1.4,1.3-2.4,1.7
		C345.2,62.3,344.1,62.5,343,62.5z M343.1,47.9c-0.8,0-1.6,0.1-2.3,0.4c-0.7,0.3-1.3,0.7-1.8,1.3c-0.5,0.6-0.9,1.2-1.1,2.1
		c-0.3,0.8-0.4,1.7-0.4,2.8c0,1,0.1,1.8,0.4,2.6c0.3,0.8,0.6,1.4,1.1,2c0.5,0.6,1.1,1,1.7,1.3s1.5,0.4,2.3,0.4
		c0.9,0,1.6-0.1,2.3-0.4c0.7-0.3,1.2-0.7,1.7-1.3c0.5-0.5,0.8-1.2,1.1-2c0.2-0.8,0.4-1.7,0.4-2.7c0-2.1-0.5-3.7-1.4-4.8
		C346.2,48.5,344.9,47.9,343.1,47.9z"/>
	<path class="st1" d="M373.9,62.1V53c0-0.9-0.1-1.7-0.2-2.4c-0.1-0.6-0.4-1.2-0.7-1.6c-0.3-0.4-0.7-0.7-1.1-0.9s-1-0.3-1.6-0.3
		c-0.6,0-1.1,0.1-1.6,0.4c-0.5,0.3-0.9,0.6-1.3,1.1c-0.4,0.5-0.7,1-0.9,1.7s-0.3,1.3-0.3,2.1v9h-1.9v-9.3c0-3.3-1.2-4.9-3.7-4.9
		c-0.6,0-1.1,0.1-1.6,0.4c-0.5,0.3-0.9,0.6-1.3,1.1c-0.4,0.5-0.7,1-0.9,1.7c-0.2,0.6-0.3,1.4-0.3,2.2v8.9h-1.9V46.6h1.9v2.5h0.1
		c1.1-1.9,2.7-2.9,4.8-2.9c0.5,0,1.1,0.1,1.5,0.3c0.5,0.2,0.9,0.4,1.3,0.7c0.4,0.3,0.7,0.7,1,1.1c0.3,0.4,0.5,0.9,0.6,1.4
		c0.5-1.1,1.3-1.9,2.1-2.5c0.9-0.6,1.9-0.9,3-0.9c3.4,0,5.1,2.1,5.1,6.3v9.6L373.9,62.1L373.9,62.1z"/>
	<path class="st1" d="M381.4,54.7c0,0.9,0.1,1.8,0.4,2.6s0.6,1.4,1,1.9s1,0.9,1.7,1.2c0.6,0.3,1.4,0.4,2.2,0.4
		c1.7,0,3.4-0.6,4.9-1.8v1.9c-1.5,1.1-3.3,1.6-5.4,1.6c-1,0-2-0.2-2.8-0.5c-0.8-0.4-1.6-0.9-2.2-1.6c-0.6-0.7-1.1-1.5-1.4-2.6
		c-0.3-1-0.5-2.2-0.5-3.5c0-1.2,0.2-2.2,0.5-3.2c0.4-1,0.8-1.8,1.5-2.6c0.6-0.7,1.4-1.3,2.2-1.7c0.9-0.4,1.8-0.6,2.8-0.6
		c1,0,1.9,0.2,2.6,0.5s1.4,0.8,1.9,1.5c0.5,0.6,0.9,1.4,1.2,2.4c0.3,0.9,0.4,2,0.4,3.1v1L381.4,54.7L381.4,54.7z M390.6,53
		c0-1.6-0.4-2.9-1.1-3.8c-0.7-0.9-1.8-1.3-3.1-1.3c-0.7,0-1.3,0.1-1.8,0.3c-0.6,0.2-1.1,0.6-1.5,1c-0.4,0.4-0.8,1-1.1,1.6
		c-0.3,0.6-0.5,1.3-0.6,2.1H390.6z"/>
	<path class="st1" d="M406.9,62.1v-8.9c0-3.5-1.3-5.3-3.8-5.3c-0.7,0-1.3,0.1-1.9,0.4c-0.6,0.3-1.1,0.6-1.5,1.1
		c-0.4,0.5-0.7,1-1,1.7c-0.2,0.6-0.4,1.4-0.4,2.1v8.9h-1.9V46.6h1.9v2.7h0.1c1.1-2,2.9-3.1,5.2-3.1c1.7,0,3,0.5,3.9,1.6
		c0.9,1.1,1.3,2.7,1.3,4.8v9.4L406.9,62.1L406.9,62.1z"/>
	<path class="st1" d="M420.1,61.9c-0.7,0.3-1.4,0.5-2.2,0.5c-2.5,0-3.8-1.4-3.8-4.3v-9.8h-2.7v-1.7h2.7v-3.9l1.9-0.6v4.5h4v1.7h-4
		v9.5c0,1,0.2,1.8,0.5,2.3c0.3,0.5,0.9,0.7,1.7,0.7c0.6,0,1.2-0.2,1.7-0.5V61.9z"/>
	<path class="st1" d="M432.3,62.1v-2.8h-0.1c-0.5,1-1.2,1.8-2.1,2.3c-0.9,0.5-1.9,0.8-3,0.8c-0.7,0-1.4-0.1-2-0.3
		c-0.6-0.2-1.1-0.5-1.5-0.9s-0.7-0.9-1-1.4c-0.2-0.5-0.3-1.1-0.3-1.8c0-1.4,0.4-2.5,1.3-3.4c0.9-0.8,2.2-1.4,3.9-1.6l4.7-0.7
		c0-3-1.2-4.5-3.5-4.5c-1.8,0-3.5,0.7-5,2v-2.1c0.3-0.2,0.7-0.4,1.1-0.6c0.4-0.2,0.8-0.3,1.3-0.5c0.5-0.1,0.9-0.2,1.4-0.3
		c0.5-0.1,0.9-0.1,1.4-0.1c1.7,0,3,0.5,3.9,1.5s1.3,2.4,1.3,4.3v10.1H432.3z M428.3,54.6c-0.7,0.1-1.3,0.2-1.8,0.4s-0.9,0.4-1.2,0.6
		c-0.3,0.3-0.6,0.6-0.7,1c-0.2,0.4-0.2,0.8-0.2,1.4c0,0.4,0.1,0.8,0.2,1.1c0.1,0.4,0.4,0.7,0.6,0.9c0.3,0.3,0.6,0.5,1,0.6
		c0.4,0.1,0.9,0.2,1.4,0.2c0.7,0,1.3-0.1,1.9-0.4c0.6-0.3,1.1-0.6,1.5-1.1c0.4-0.5,0.7-1,1-1.7c0.2-0.6,0.4-1.3,0.4-2.1V54
		L428.3,54.6z"/>
	<path class="st1" d="M446.5,48.6c-0.5-0.3-1-0.5-1.8-0.5c-0.5,0-1,0.1-1.4,0.3c-0.4,0.2-0.7,0.5-1,0.8c-0.3,0.3-0.6,0.7-0.8,1.2
		c-0.2,0.4-0.4,0.9-0.5,1.4c-0.1,0.5-0.2,1-0.3,1.4c-0.1,0.5-0.1,0.9-0.1,1.4v7.6h-1.9V46.6h1.9v3.3h0.1c0.2-0.6,0.4-1.1,0.7-1.5
		c0.3-0.5,0.6-0.8,1-1.1c0.4-0.3,0.8-0.5,1.2-0.7c0.4-0.2,0.9-0.2,1.4-0.2c0.3,0,0.6,0,0.8,0.1c0.2,0,0.5,0.1,0.7,0.2L446.5,48.6
		L446.5,48.6z"/>
	<path class="st1" d="M450.3,42.7c-0.4,0-0.7-0.1-1-0.4c-0.3-0.3-0.4-0.6-0.4-1c0-0.4,0.1-0.7,0.4-1c0.3-0.3,0.6-0.4,1-0.4
		c0.2,0,0.4,0,0.5,0.1c0.2,0.1,0.3,0.2,0.4,0.3c0.1,0.1,0.2,0.3,0.3,0.4c0.1,0.2,0.1,0.4,0.1,0.6c0,0.2,0,0.4-0.1,0.5
		c-0.1,0.2-0.2,0.3-0.3,0.4c-0.1,0.1-0.3,0.2-0.4,0.3S450.5,42.7,450.3,42.7z M449.4,62.1V46.6h1.9v15.5H449.4z"/>
	<path class="st1" d="M462.6,62.5c-1.1,0-2.2-0.2-3.1-0.6c-0.9-0.4-1.7-0.9-2.3-1.6c-0.6-0.7-1.1-1.5-1.5-2.5s-0.5-2.1-0.5-3.3
		c0-1.3,0.2-2.4,0.5-3.5s0.9-1.9,1.6-2.6c0.7-0.7,1.5-1.3,2.4-1.6c0.9-0.4,2-0.6,3.2-0.6c1.1,0,2.1,0.2,3,0.6
		c0.9,0.4,1.7,0.9,2.3,1.6s1.1,1.5,1.4,2.5c0.3,1,0.5,2.1,0.5,3.4c0,1.2-0.2,2.3-0.5,3.3c-0.4,1-0.8,1.9-1.5,2.6
		c-0.6,0.7-1.4,1.3-2.4,1.7C464.9,62.3,463.8,62.5,462.6,62.5z M462.8,47.9c-0.8,0-1.6,0.1-2.3,0.4c-0.7,0.3-1.3,0.7-1.8,1.3
		c-0.5,0.6-0.9,1.2-1.1,2.1c-0.3,0.8-0.4,1.7-0.4,2.8c0,1,0.1,1.8,0.4,2.6c0.3,0.8,0.6,1.4,1.1,2s1.1,1,1.7,1.3
		c0.7,0.3,1.5,0.4,2.3,0.4c0.9,0,1.6-0.1,2.3-0.4c0.7-0.3,1.2-0.7,1.7-1.3c0.5-0.5,0.8-1.2,1.1-2c0.2-0.8,0.4-1.7,0.4-2.7
		c0-2.1-0.5-3.7-1.4-4.8C465.8,48.5,464.5,47.9,462.8,47.9z"/>
	<path class="st1" d="M473.2,59.3c0.3,0.2,0.6,0.4,1,0.6c0.3,0.2,0.7,0.3,1.1,0.5c0.4,0.1,0.7,0.2,1.1,0.3s0.7,0.1,1.1,0.1
		c2.3,0,3.5-0.9,3.5-2.6c0-0.4-0.1-0.7-0.2-1c-0.2-0.3-0.4-0.5-0.7-0.8c-0.3-0.2-0.7-0.5-1.1-0.7c-0.4-0.2-0.9-0.4-1.4-0.6
		c-0.7-0.3-1.3-0.6-1.8-0.9c-0.5-0.3-0.9-0.6-1.3-1c-0.3-0.4-0.6-0.8-0.7-1.2c-0.2-0.4-0.2-0.9-0.2-1.5c0-0.7,0.1-1.3,0.4-1.8
		c0.3-0.5,0.7-1,1.2-1.4c0.5-0.4,1.1-0.7,1.8-0.9c0.7-0.2,1.4-0.3,2.1-0.3c1.3,0,2.5,0.3,3.5,0.8v2c-1.2-0.7-2.4-1.1-3.8-1.1
		c-0.5,0-0.9,0.1-1.3,0.2c-0.4,0.1-0.7,0.3-1,0.5c-0.3,0.2-0.5,0.5-0.7,0.8c-0.2,0.3-0.2,0.6-0.2,1c0,0.4,0.1,0.7,0.2,1
		c0.1,0.3,0.3,0.5,0.6,0.8c0.3,0.2,0.6,0.5,1,0.7c0.4,0.2,0.9,0.4,1.5,0.7c0.7,0.3,1.4,0.6,1.9,0.9c0.5,0.3,1,0.6,1.3,1
		c0.4,0.3,0.6,0.7,0.8,1.2s0.3,0.9,0.3,1.5c0,0.7-0.1,1.3-0.4,1.9s-0.7,1-1.2,1.4c-0.5,0.4-1.1,0.7-1.8,0.8
		c-0.7,0.2-1.4,0.3-2.2,0.3c-1.6,0-2.9-0.3-4-1L473.2,59.3L473.2,59.3L473.2,59.3z"/>
	<path class="st1" d="M507.3,62.1l-3.3-6.2c-0.3-0.6-0.6-1.1-0.9-1.5c-0.3-0.4-0.6-0.7-0.9-1c-0.3-0.2-0.7-0.4-1-0.5
		c-0.4-0.1-0.8-0.2-1.2-0.2h-2.4v9.4h-2V40.4h6.3c0.8,0,1.6,0.1,2.4,0.4s1.4,0.6,2,1.1s1.1,1.1,1.4,1.8c0.4,0.7,0.5,1.5,0.5,2.5
		c0,0.8-0.1,1.5-0.3,2.1s-0.6,1.2-1,1.7c-0.4,0.5-0.9,0.9-1.6,1.3c-0.6,0.3-1.3,0.6-2.1,0.8v0.1c0.3,0.1,0.6,0.3,0.8,0.5
		s0.5,0.4,0.7,0.7c0.2,0.3,0.5,0.6,0.7,0.9c0.2,0.4,0.5,0.8,0.7,1.2l3.6,6.7L507.3,62.1L507.3,62.1z M497.5,42.3v8.6h3.6
		c0.7,0,1.4-0.1,2-0.3c0.6-0.2,1.1-0.5,1.6-0.9c0.4-0.4,0.8-0.9,1-1.4c0.2-0.6,0.4-1.2,0.4-1.9c0-1.3-0.4-2.3-1.2-3
		c-0.8-0.7-2-1.1-3.5-1.1H497.5z"/>
	<path class="st1" d="M513.3,62.1V40.4h5.9c0.9,0,1.7,0.1,2.4,0.4c0.7,0.2,1.3,0.6,1.8,1c0.5,0.4,0.9,1,1.2,1.6
		c0.3,0.6,0.4,1.3,0.4,2c0,0.6-0.1,1.2-0.3,1.8s-0.4,1-0.7,1.5c-0.3,0.4-0.7,0.8-1.2,1.2c-0.5,0.3-1,0.6-1.6,0.8v0.1
		c0.7,0.1,1.4,0.2,2,0.5c0.6,0.3,1.1,0.7,1.5,1.1c0.4,0.5,0.8,1,1,1.6c0.2,0.6,0.3,1.3,0.3,2c0,0.9-0.2,1.8-0.5,2.5
		c-0.3,0.8-0.8,1.4-1.4,2c-0.6,0.6-1.3,1-2.1,1.3c-0.8,0.3-1.7,0.5-2.7,0.5L513.3,62.1L513.3,62.1z M515.4,42.3V50h2.8
		c0.7,0,1.4-0.1,2-0.3c0.6-0.2,1.1-0.5,1.5-0.8c0.4-0.4,0.7-0.8,1-1.3c0.2-0.5,0.3-1.1,0.3-1.7c0-2.4-1.5-3.5-4.4-3.5L515.4,42.3
		L515.4,42.3z M515.4,51.8v8.5h3.7c1.6,0,2.8-0.4,3.7-1.1c0.9-0.8,1.3-1.8,1.3-3.2c0-2.8-1.9-4.2-5.7-4.2H515.4z"/>
	<path class="st1" d="M530.7,62.1V40.4h5.9c0.9,0,1.7,0.1,2.4,0.4c0.7,0.2,1.3,0.6,1.8,1c0.5,0.4,0.9,1,1.2,1.6
		c0.3,0.6,0.4,1.3,0.4,2c0,0.6-0.1,1.2-0.3,1.8s-0.4,1-0.7,1.5c-0.3,0.4-0.7,0.8-1.2,1.2c-0.5,0.3-1,0.6-1.6,0.8v0.1
		c0.7,0.1,1.4,0.2,2,0.5c0.6,0.3,1.1,0.7,1.5,1.1c0.4,0.5,0.8,1,1,1.6c0.2,0.6,0.3,1.3,0.3,2c0,0.9-0.2,1.8-0.5,2.5
		c-0.3,0.8-0.8,1.4-1.4,2c-0.6,0.6-1.3,1-2.1,1.3c-0.8,0.3-1.7,0.5-2.7,0.5L530.7,62.1L530.7,62.1z M532.7,42.3V50h2.8
		c0.7,0,1.4-0.1,2-0.3c0.6-0.2,1.1-0.5,1.5-0.8c0.4-0.4,0.7-0.8,1-1.3c0.2-0.5,0.3-1.1,0.3-1.7c0-2.4-1.5-3.5-4.4-3.5L532.7,42.3
		L532.7,42.3z M532.7,51.8v8.5h3.7c1.6,0,2.8-0.4,3.7-1.1c0.9-0.8,1.3-1.8,1.3-3.2c0-2.8-1.9-4.2-5.7-4.2H532.7z"/>
</g>
<image style="overflow:visible;" width="512" height="512" xlink:href="bandera-y-wea.png"  transform="matrix(0.1836 0 0 0.1836 47.5115 7.3905)">
</image>
</svg>
