<?xml version="1.0" encoding="utf-8"?>
<!-- Generator: Adobe Illustrator 16.0.0, SVG Export Plug-In . SVG Version: 6.00 Build 0)  -->
<!DOCTYPE svg PUBLIC "-//W3C//DTD SVG 1.1//EN" "http://www.w3.org/Graphics/SVG/1.1/DTD/svg11.dtd">
<svg version="1.1" id="Layer_1" xmlns="http://www.w3.org/2000/svg" xmlns:xlink="http://www.w3.org/1999/xlink" viewBox="0 299.368 612 193.264" enable-background="new 0 299.368 612 193.264"
	 xml:space="preserve">
<path fill="#56B4D9" d="M0,299.368h612v193.264H0V299.368z"/>
<g>
	<path fill="#FFFFFF" d="M137.196,360.002c-2.23,1.251-4.592,1.877-7.084,1.877c-1.574,0-2.987-0.271-4.238-0.811
		c-1.251-0.539-2.316-1.291-3.194-2.255c-0.878-0.964-1.551-2.114-2.021-3.451c-0.469-1.337-0.704-2.808-0.704-4.413
		c0-1.059,0.114-2.078,0.34-3.057c0.228-0.979,0.561-1.897,0.999-2.756c0.439-0.857,0.977-1.635,1.612-2.33
		c0.636-0.697,1.365-1.297,2.188-1.802c0.822-0.505,1.728-0.894,2.717-1.165c0.989-0.273,2.053-0.409,3.194-0.409
		c2.149,0,4.066,0.384,5.752,1.15v2.226c-1.857-1.029-3.855-1.545-5.994-1.545c-1.322,0-2.518,0.242-3.587,0.727
		c-1.07,0.484-1.98,1.15-2.732,1.998c-0.751,0.848-1.334,1.85-1.748,3.005c-0.414,1.156-0.626,2.409-0.636,3.762
		c-0.01,1.342,0.164,2.581,0.522,3.716c0.358,1.136,0.89,2.117,1.597,2.944c0.706,0.827,1.579,1.474,2.619,1.938
		c1.039,0.464,2.24,0.696,3.603,0.696c1.836,0,3.431-0.384,4.783-1.15v-6.615h-4.935v-1.831h6.948L137.196,360.002L137.196,360.002z
		"/>
	<path fill="#FFFFFF" d="M142.827,354.098c0.01,0.949,0.136,1.802,0.378,2.559c0.242,0.757,0.59,1.397,1.044,1.922
		s1.007,0.927,1.657,1.204c0.651,0.277,1.385,0.416,2.203,0.416c1.746,0,3.396-0.61,4.95-1.831v1.906
		c-1.483,1.061-3.28,1.59-5.389,1.59c-1.04,0-1.983-0.182-2.831-0.545c-0.848-0.363-1.569-0.891-2.165-1.582
		c-0.596-0.69-1.055-1.541-1.377-2.551c-0.323-1.009-0.484-2.159-0.484-3.451c0-1.16,0.176-2.234,0.53-3.224
		c0.353-0.989,0.842-1.844,1.468-2.565c0.625-0.722,1.367-1.287,2.225-1.695c0.857-0.409,1.796-0.613,2.815-0.613
		c0.999,0,1.882,0.174,2.649,0.522c0.767,0.348,1.41,0.845,1.93,1.491s0.916,1.433,1.188,2.361c0.272,0.928,0.409,1.967,0.409,3.117
		v0.969H142.827L142.827,354.098z M152.03,352.402c-0.03-1.614-0.414-2.865-1.15-3.754c-0.737-0.888-1.761-1.332-3.073-1.332
		c-0.656,0-1.264,0.116-1.824,0.349c-0.561,0.232-1.052,0.567-1.476,1.007c-0.424,0.438-0.774,0.974-1.052,1.604
		c-0.277,0.631-0.472,1.339-0.583,2.126H152.03z"/>
	<path fill="#FFFFFF" d="M168.287,361.5v-8.931c0-3.502-1.271-5.253-3.814-5.253c-0.676,0-1.302,0.135-1.877,0.401
		c-0.575,0.268-1.072,0.639-1.491,1.112c-0.418,0.475-0.747,1.037-0.983,1.688c-0.237,0.65-0.356,1.354-0.356,2.111v8.87h-1.938V346
		h1.938v2.694h0.061c1.15-2.038,2.881-3.058,5.192-3.058c1.695,0,2.987,0.55,3.875,1.65c0.888,1.1,1.332,2.688,1.332,4.768v9.445
		L168.287,361.5L168.287,361.5z"/>
	<path fill="#FFFFFF" d="M175.81,354.098c0.01,0.949,0.136,1.802,0.378,2.559c0.242,0.757,0.59,1.397,1.044,1.922
		s1.007,0.927,1.657,1.204c0.651,0.277,1.385,0.416,2.203,0.416c1.746,0,3.396-0.61,4.95-1.831v1.906
		c-1.483,1.061-3.28,1.59-5.389,1.59c-1.04,0-1.983-0.182-2.831-0.545c-0.848-0.363-1.569-0.891-2.165-1.582
		c-0.596-0.69-1.055-1.541-1.377-2.551c-0.323-1.009-0.484-2.159-0.484-3.451c0-1.16,0.176-2.234,0.53-3.224
		c0.353-0.989,0.842-1.844,1.468-2.565c0.625-0.722,1.367-1.287,2.225-1.695c0.857-0.409,1.796-0.613,2.815-0.613
		c0.999,0,1.882,0.174,2.649,0.522c0.767,0.348,1.41,0.845,1.93,1.491s0.916,1.433,1.188,2.361c0.272,0.928,0.409,1.967,0.409,3.117
		v0.969H175.81L175.81,354.098z M185.013,352.402c-0.03-1.614-0.414-2.865-1.15-3.754c-0.737-0.888-1.761-1.332-3.073-1.332
		c-0.656,0-1.264,0.116-1.824,0.349c-0.561,0.232-1.052,0.567-1.476,1.007c-0.424,0.438-0.774,0.974-1.052,1.604
		c-0.277,0.631-0.472,1.339-0.583,2.126H185.013z"/>
	<path fill="#FFFFFF" d="M198.5,347.982c-0.454-0.332-1.04-0.499-1.756-0.499c-0.515,0-0.969,0.099-1.362,0.295
		c-0.394,0.197-0.739,0.462-1.037,0.795c-0.298,0.333-0.55,0.719-0.757,1.158c-0.207,0.438-0.374,0.896-0.5,1.37
		s-0.217,0.953-0.272,1.438c-0.055,0.484-0.083,0.943-0.083,1.377v7.584h-1.922V346h1.922v3.314h0.061
		c0.182-0.564,0.411-1.071,0.688-1.521c0.278-0.449,0.598-0.827,0.961-1.136c0.363-0.308,0.759-0.542,1.188-0.703
		c0.429-0.162,0.88-0.242,1.355-0.242c0.313,0,0.593,0.02,0.84,0.061c0.247,0.04,0.471,0.101,0.673,0.182L198.5,347.982
		L198.5,347.982z"/>
	<path fill="#FFFFFF" d="M210.246,361.5v-2.755h-0.061c-0.505,0.989-1.193,1.756-2.066,2.301s-1.86,0.817-2.959,0.817
		c-0.747,0-1.42-0.105-2.021-0.318c-0.6-0.211-1.11-0.512-1.528-0.9c-0.419-0.388-0.742-0.855-0.969-1.4
		c-0.228-0.545-0.341-1.145-0.341-1.801c0-1.402,0.434-2.521,1.302-3.353c0.868-0.833,2.18-1.375,3.936-1.628l4.708-0.681
		c0-2.977-1.156-4.466-3.466-4.466c-1.807,0-3.481,0.661-5.025,1.983v-2.119c0.323-0.232,0.688-0.441,1.098-0.628
		c0.408-0.187,0.84-0.349,1.294-0.484c0.454-0.137,0.921-0.242,1.4-0.318c0.479-0.075,0.946-0.113,1.4-0.113
		c1.726,0,3.03,0.484,3.913,1.453c0.883,0.969,1.325,2.412,1.325,4.329V361.5H210.246z M206.25,353.977
		c-0.696,0.102-1.292,0.228-1.786,0.379c-0.495,0.151-0.903,0.355-1.226,0.613c-0.323,0.257-0.56,0.575-0.711,0.953
		c-0.151,0.379-0.227,0.846-0.227,1.4c0,0.414,0.073,0.797,0.22,1.15c0.146,0.354,0.358,0.658,0.636,0.916
		c0.277,0.257,0.615,0.456,1.014,0.598s0.85,0.212,1.355,0.212c0.686,0,1.317-0.131,1.892-0.394c0.575-0.263,1.072-0.626,1.491-1.09
		c0.418-0.464,0.747-1.02,0.983-1.665c0.237-0.646,0.356-1.347,0.356-2.104v-1.528L206.25,353.977z"/>
	<path fill="#FFFFFF" d="M227.713,361.5v-2.725h-0.061c-0.515,0.979-1.249,1.738-2.203,2.278c-0.953,0.539-2.036,0.81-3.247,0.81
		c-0.969,0-1.849-0.18-2.641-0.537c-0.792-0.358-1.471-0.876-2.036-1.552c-0.565-0.676-1.001-1.493-1.31-2.452
		c-0.308-0.959-0.461-2.043-0.461-3.254c0-1.252,0.169-2.395,0.507-3.429c0.338-1.034,0.817-1.923,1.438-2.664
		c0.621-0.742,1.368-1.317,2.24-1.726c0.873-0.409,1.844-0.613,2.914-0.613c2.23,0,3.83,0.893,4.798,2.68h0.061v-9.764h1.938V361.5
		H227.713z M227.713,352.146c0-0.676-0.116-1.307-0.348-1.892c-0.232-0.586-0.555-1.096-0.969-1.529
		c-0.414-0.434-0.911-0.777-1.491-1.029c-0.58-0.252-1.218-0.379-1.915-0.379c-0.767,0-1.474,0.152-2.119,0.455
		c-0.646,0.303-1.198,0.739-1.658,1.309c-0.459,0.57-0.817,1.264-1.074,2.082c-0.258,0.816-0.386,1.745-0.386,2.785
		c0,0.979,0.116,1.856,0.348,2.633s0.563,1.434,0.991,1.969c0.429,0.534,0.941,0.943,1.537,1.226
		c0.595,0.282,1.256,0.424,1.983,0.424c0.787,0,1.496-0.142,2.127-0.424c0.63-0.282,1.165-0.671,1.604-1.165
		c0.438-0.495,0.777-1.075,1.014-1.741c0.237-0.666,0.356-1.378,0.356-2.134V352.146L227.713,352.146z"/>
	<path fill="#FFFFFF" d="M240.988,361.863c-1.15,0-2.182-0.191-3.096-0.575c-0.913-0.384-1.693-0.926-2.338-1.627
		c-0.646-0.701-1.141-1.542-1.483-2.521c-0.343-0.979-0.515-2.063-0.515-3.254c0-1.292,0.182-2.447,0.545-3.467
		c0.363-1.02,0.88-1.885,1.551-2.596c0.671-0.712,1.481-1.254,2.43-1.627c0.948-0.374,2.008-0.561,3.179-0.561
		c1.12,0,2.129,0.185,3.027,0.553s1.66,0.9,2.286,1.597c0.625,0.696,1.105,1.544,1.438,2.543s0.5,2.134,0.5,3.405
		c0,1.211-0.174,2.314-0.522,3.308c-0.349,0.994-0.846,1.85-1.491,2.565c-0.646,0.717-1.433,1.271-2.361,1.666
		C243.208,361.666,242.159,361.863,240.988,361.863z M241.14,347.316c-0.848,0-1.615,0.146-2.301,0.439
		c-0.687,0.293-1.274,0.719-1.764,1.279c-0.489,0.56-0.865,1.246-1.127,2.059c-0.263,0.813-0.394,1.732-0.394,2.762
		c0,0.969,0.131,1.842,0.394,2.619c0.262,0.777,0.633,1.443,1.113,1.998c0.479,0.555,1.062,0.981,1.748,1.279
		s1.453,0.446,2.301,0.446c0.868,0,1.635-0.144,2.301-0.432c0.666-0.287,1.231-0.706,1.695-1.256
		c0.464-0.55,0.815-1.224,1.052-2.021c0.237-0.798,0.356-1.706,0.356-2.725c0-2.09-0.464-3.687-1.393-4.791
		C244.192,347.869,242.865,347.316,241.14,347.316z"/>
	<path fill="#FFFFFF" d="M260.106,347.982c-0.454-0.332-1.04-0.499-1.756-0.499c-0.515,0-0.969,0.099-1.362,0.295
		c-0.394,0.197-0.739,0.462-1.037,0.795c-0.298,0.333-0.55,0.719-0.757,1.158c-0.207,0.438-0.374,0.896-0.5,1.37
		s-0.217,0.953-0.272,1.438c-0.055,0.484-0.083,0.943-0.083,1.377v7.584h-1.922V346h1.922v3.314h0.061
		c0.182-0.564,0.411-1.071,0.688-1.521c0.278-0.449,0.598-0.827,0.961-1.136c0.363-0.308,0.759-0.542,1.188-0.703
		c0.429-0.162,0.88-0.242,1.355-0.242c0.313,0,0.593,0.02,0.84,0.061c0.247,0.04,0.471,0.101,0.673,0.182L260.106,347.982
		L260.106,347.982z"/>
	<path fill="#FFFFFF" d="M286.323,360.697c-1.675,0.787-3.587,1.182-5.737,1.182c-1.534,0-2.927-0.271-4.178-0.811
		c-1.251-0.539-2.318-1.289-3.202-2.248c-0.883-0.958-1.564-2.099-2.043-3.42c-0.479-1.322-0.719-2.766-0.719-4.33
		c0-1.645,0.255-3.176,0.764-4.594c0.51-1.417,1.239-2.648,2.188-3.693c0.948-1.044,2.097-1.864,3.443-2.459
		c1.348-0.596,2.858-0.894,4.534-0.894c1.847,0,3.497,0.282,4.95,0.848v2.149c-1.554-0.777-3.214-1.166-4.98-1.166
		c-1.403,0-2.649,0.242-3.739,0.727c-1.09,0.485-2.008,1.158-2.755,2.021c-0.747,0.862-1.317,1.882-1.71,3.058
		c-0.393,1.176-0.59,2.46-0.59,3.853c0,1.251,0.176,2.429,0.53,3.534c0.353,1.104,0.875,2.071,1.567,2.898
		c0.691,0.827,1.551,1.483,2.581,1.968c1.03,0.485,2.225,0.727,3.587,0.727c2.089,0,3.925-0.439,5.51-1.316L286.323,360.697
		L286.323,360.697z"/>
	<path fill="#FFFFFF" d="M296.979,361.863c-1.15,0-2.182-0.191-3.096-0.575c-0.913-0.384-1.693-0.926-2.338-1.627
		c-0.646-0.701-1.141-1.542-1.483-2.521c-0.343-0.979-0.515-2.063-0.515-3.254c0-1.292,0.182-2.447,0.545-3.467
		c0.363-1.02,0.88-1.885,1.551-2.596c0.671-0.712,1.481-1.254,2.43-1.627c0.948-0.374,2.008-0.561,3.179-0.561
		c1.12,0,2.129,0.185,3.027,0.553s1.66,0.9,2.286,1.597c0.625,0.696,1.105,1.544,1.438,2.543s0.5,2.134,0.5,3.405
		c0,1.211-0.174,2.314-0.522,3.308c-0.349,0.994-0.846,1.85-1.491,2.565c-0.646,0.717-1.433,1.271-2.361,1.666
		C299.199,361.666,298.149,361.863,296.979,361.863z M297.13,347.316c-0.848,0-1.615,0.146-2.301,0.439
		c-0.687,0.293-1.274,0.719-1.764,1.279c-0.489,0.56-0.865,1.246-1.127,2.059c-0.263,0.813-0.394,1.732-0.394,2.762
		c0,0.969,0.131,1.842,0.394,2.619c0.262,0.777,0.633,1.443,1.113,1.998c0.479,0.555,1.062,0.981,1.748,1.279
		s1.453,0.446,2.301,0.446c0.868,0,1.635-0.144,2.301-0.432c0.666-0.287,1.231-0.706,1.695-1.256
		c0.464-0.55,0.815-1.224,1.052-2.021c0.237-0.798,0.356-1.706,0.356-2.725c0-2.09-0.464-3.687-1.393-4.791
		C300.183,347.869,298.856,347.316,297.13,347.316z"/>
	<path fill="#FFFFFF" d="M327.889,361.5v-9.112c0-0.929-0.07-1.713-0.213-2.354c-0.141-0.641-0.359-1.163-0.658-1.567
		c-0.297-0.403-0.676-0.695-1.135-0.877c-0.459-0.182-1.007-0.273-1.643-0.273c-0.565,0-1.101,0.135-1.604,0.401
		c-0.505,0.268-0.945,0.636-1.325,1.105c-0.377,0.469-0.676,1.021-0.893,1.657s-0.325,1.322-0.325,2.059v8.961h-1.938v-9.309
		c0-3.25-1.247-4.875-3.739-4.875c-0.574,0-1.109,0.129-1.604,0.387c-0.494,0.257-0.926,0.618-1.295,1.082
		c-0.368,0.464-0.655,1.021-0.862,1.673c-0.206,0.65-0.311,1.37-0.311,2.157v8.885h-1.938V346h1.938v2.513h0.062
		c1.09-1.917,2.679-2.876,4.769-2.876c0.545,0,1.06,0.083,1.543,0.25c0.484,0.166,0.918,0.398,1.303,0.696
		c0.384,0.298,0.714,0.653,0.99,1.067c0.278,0.413,0.487,0.867,0.629,1.361c0.545-1.1,1.254-1.938,2.127-2.512
		c0.873-0.576,1.859-0.863,2.959-0.863c3.4,0,5.103,2.099,5.103,6.297v9.566L327.889,361.5L327.889,361.5z"/>
	<path fill="#FFFFFF" d="M335.411,354.098c0.01,0.949,0.136,1.802,0.378,2.559c0.242,0.757,0.591,1.397,1.045,1.922
		s1.007,0.927,1.657,1.204c0.65,0.277,1.386,0.416,2.202,0.416c1.746,0,3.396-0.61,4.948-1.831v1.906
		c-1.481,1.061-3.278,1.59-5.388,1.59c-1.04,0-1.982-0.182-2.831-0.545c-0.848-0.363-1.567-0.891-2.164-1.582
		c-0.596-0.69-1.055-1.541-1.377-2.551c-0.324-1.009-0.483-2.159-0.483-3.451c0-1.16,0.176-2.234,0.528-3.224
		c0.354-0.99,0.842-1.844,1.47-2.565c0.625-0.722,1.366-1.287,2.225-1.695c0.856-0.409,1.796-0.613,2.814-0.613
		c0.999,0,1.883,0.174,2.649,0.522c0.766,0.348,1.41,0.845,1.93,1.491c0.521,0.646,0.916,1.433,1.188,2.361
		c0.272,0.928,0.408,1.967,0.408,3.117v0.969H335.411L335.411,354.098z M344.614,352.402c-0.03-1.614-0.414-2.865-1.15-3.754
		c-0.737-0.888-1.761-1.332-3.073-1.332c-0.655,0-1.264,0.116-1.822,0.349c-0.562,0.232-1.053,0.567-1.477,1.007
		c-0.424,0.438-0.774,0.974-1.053,1.604c-0.278,0.63-0.472,1.339-0.582,2.126H344.614z"/>
	<path fill="#FFFFFF" d="M360.871,361.5v-8.931c0-3.502-1.271-5.253-3.814-5.253c-0.676,0-1.301,0.135-1.877,0.401
		c-0.573,0.268-1.071,0.639-1.489,1.112c-0.421,0.475-0.748,1.037-0.984,1.688c-0.236,0.65-0.355,1.354-0.355,2.111v8.87h-1.938V346
		h1.938v2.694h0.062c1.149-2.038,2.881-3.058,5.19-3.058c1.695,0,2.988,0.55,3.875,1.65c0.89,1.1,1.332,2.688,1.332,4.768v9.445
		L360.871,361.5L360.871,361.5z"/>
	<path fill="#FFFFFF" d="M374.131,361.318c-0.666,0.333-1.393,0.5-2.18,0.5c-2.502,0-3.754-1.443-3.754-4.33v-9.793h-2.726V346
		h2.726v-3.905l1.938-0.636V346h3.996v1.695h-3.996v9.49c0,1.05,0.172,1.807,0.515,2.271c0.344,0.464,0.924,0.695,1.741,0.695
		c0.605,0,1.187-0.182,1.74-0.545V361.318z"/>
	<path fill="#FFFFFF" d="M386.254,361.5v-2.755h-0.061c-0.504,0.989-1.193,1.756-2.064,2.301c-0.873,0.545-1.859,0.817-2.961,0.817
		c-0.746,0-1.42-0.105-2.02-0.318c-0.603-0.211-1.111-0.512-1.529-0.9s-0.742-0.855-0.969-1.4c-0.228-0.545-0.341-1.145-0.341-1.801
		c0-1.402,0.435-2.521,1.302-3.353c0.869-0.833,2.18-1.375,3.936-1.628l4.707-0.681c0-2.977-1.154-4.466-3.465-4.466
		c-1.807,0-3.482,0.661-5.025,1.983v-2.119c0.322-0.232,0.688-0.441,1.099-0.628c0.407-0.187,0.84-0.349,1.293-0.484
		c0.455-0.137,0.922-0.242,1.399-0.318c0.479-0.075,0.945-0.113,1.4-0.113c1.725,0,3.029,0.484,3.912,1.453
		c0.883,0.969,1.324,2.412,1.324,4.329V361.5H386.254z M382.258,353.977c-0.695,0.102-1.291,0.228-1.785,0.379
		s-0.901,0.355-1.227,0.613c-0.322,0.257-0.562,0.575-0.711,0.953c-0.152,0.379-0.228,0.846-0.228,1.4
		c0,0.414,0.072,0.797,0.22,1.15c0.146,0.353,0.356,0.658,0.637,0.916c0.277,0.257,0.615,0.456,1.014,0.598
		c0.399,0.142,0.851,0.212,1.354,0.212c0.688,0,1.317-0.131,1.893-0.394c0.576-0.263,1.072-0.626,1.492-1.09
		c0.418-0.464,0.746-1.02,0.982-1.665c0.237-0.646,0.354-1.347,0.354-2.104v-1.528L382.258,353.977z"/>
	<path fill="#FFFFFF" d="M400.545,347.982c-0.455-0.332-1.039-0.499-1.756-0.499c-0.516,0-0.969,0.099-1.363,0.295
		c-0.393,0.197-0.738,0.462-1.035,0.795c-0.299,0.333-0.551,0.719-0.758,1.158c-0.207,0.438-0.373,0.896-0.5,1.37
		c-0.125,0.474-0.217,0.953-0.271,1.438c-0.058,0.484-0.084,0.943-0.084,1.377v7.584h-1.922V346h1.922v3.314h0.061
		c0.183-0.564,0.412-1.071,0.689-1.521c0.276-0.45,0.598-0.827,0.961-1.136c0.362-0.308,0.76-0.542,1.188-0.703
		c0.431-0.162,0.881-0.242,1.355-0.242c0.313,0,0.592,0.02,0.84,0.061c0.248,0.04,0.473,0.101,0.674,0.182L400.545,347.982
		L400.545,347.982z"/>
	<path fill="#FFFFFF" d="M404.313,342.08c-0.372,0-0.694-0.132-0.969-0.395c-0.271-0.262-0.408-0.595-0.408-0.998
		c0-0.395,0.138-0.72,0.408-0.977c0.273-0.258,0.597-0.386,0.969-0.386c0.191,0,0.373,0.033,0.546,0.098
		c0.172,0.066,0.319,0.159,0.446,0.28c0.125,0.121,0.228,0.265,0.304,0.432c0.075,0.166,0.112,0.351,0.112,0.553
		c0,0.191-0.035,0.373-0.104,0.545c-0.07,0.171-0.172,0.32-0.304,0.446c-0.131,0.126-0.28,0.225-0.446,0.295
		S404.516,342.08,404.313,342.08z M403.359,361.5V346h1.938v15.5H403.359z"/>
	<path fill="#FFFFFF" d="M416.635,361.863c-1.149,0-2.182-0.191-3.096-0.575c-0.912-0.384-1.691-0.926-2.338-1.627
		c-0.647-0.701-1.142-1.542-1.484-2.521c-0.342-0.979-0.514-2.063-0.514-3.254c0-1.292,0.182-2.447,0.545-3.467
		s0.881-1.885,1.551-2.596c0.672-0.712,1.482-1.254,2.43-1.627c0.949-0.374,2.009-0.561,3.181-0.561
		c1.119,0,2.129,0.185,3.026,0.553c0.898,0.368,1.66,0.9,2.285,1.597c0.625,0.697,1.105,1.544,1.438,2.543
		c0.334,0.999,0.5,2.134,0.5,3.405c0,1.211-0.174,2.314-0.521,3.308c-0.35,0.994-0.846,1.85-1.492,2.565
		c-0.645,0.717-1.432,1.271-2.36,1.666C418.855,361.666,417.807,361.863,416.635,361.863z M416.787,347.316
		c-0.848,0-1.615,0.146-2.301,0.439c-0.688,0.293-1.275,0.719-1.765,1.279c-0.489,0.56-0.864,1.246-1.129,2.059
		c-0.262,0.813-0.393,1.732-0.393,2.762c0,0.969,0.131,1.842,0.393,2.619c0.265,0.777,0.635,1.443,1.113,1.998
		c0.478,0.555,1.063,0.981,1.748,1.279c0.688,0.298,1.453,0.446,2.301,0.446c0.869,0,1.635-0.144,2.301-0.432
		c0.666-0.287,1.232-0.706,1.695-1.256c0.465-0.55,0.814-1.224,1.053-2.021c0.236-0.798,0.355-1.706,0.355-2.725
		c0-2.09-0.465-3.687-1.394-4.791C419.84,347.869,418.512,347.316,416.787,347.316z"/>
	<path fill="#FFFFFF" d="M427.184,358.715c0.293,0.232,0.611,0.439,0.955,0.621c0.343,0.182,0.695,0.338,1.06,0.469
		c0.363,0.131,0.729,0.229,1.098,0.295s0.719,0.099,1.053,0.099c2.302,0,3.451-0.862,3.451-2.589c0-0.393-0.082-0.733-0.242-1.021
		c-0.162-0.287-0.395-0.55-0.696-0.787c-0.304-0.236-0.666-0.456-1.091-0.658c-0.424-0.202-0.901-0.414-1.438-0.636
		c-0.717-0.293-1.332-0.591-1.848-0.894c-0.515-0.303-0.938-0.633-1.271-0.991c-0.332-0.357-0.58-0.751-0.74-1.181
		c-0.161-0.429-0.241-0.916-0.241-1.461c0-0.686,0.147-1.296,0.444-1.831c0.299-0.535,0.699-0.989,1.203-1.362
		c0.506-0.373,1.088-0.658,1.75-0.855c0.66-0.196,1.354-0.295,2.08-0.295c1.342,0,2.514,0.252,3.512,0.757v2.044
		c-1.16-0.747-2.412-1.121-3.754-1.121c-0.483,0-0.926,0.061-1.324,0.182c-0.397,0.121-0.737,0.293-1.021,0.516
		c-0.283,0.222-0.502,0.486-0.658,0.794c-0.156,0.309-0.233,0.648-0.233,1.022c0,0.383,0.061,0.719,0.182,1.006
		c0.121,0.288,0.311,0.548,0.565,0.779c0.259,0.232,0.593,0.455,1,0.666c0.408,0.213,0.906,0.439,1.49,0.682
		c0.748,0.303,1.394,0.604,1.938,0.9c0.545,0.298,0.994,0.621,1.348,0.969c0.354,0.349,0.615,0.737,0.787,1.166
		s0.258,0.926,0.258,1.49c0,0.697-0.145,1.317-0.432,1.862s-0.688,1.004-1.195,1.378c-0.51,0.373-1.106,0.655-1.795,0.848
		c-0.686,0.191-1.432,0.287-2.24,0.287c-1.563,0-2.881-0.328-3.951-0.984v-2.166H427.184z"/>
	<path fill="#FFFFFF" d="M461.287,361.5l-3.271-6.221c-0.321-0.616-0.635-1.131-0.938-1.545c-0.303-0.413-0.615-0.743-0.939-0.991
		c-0.321-0.247-0.668-0.424-1.034-0.529c-0.369-0.106-0.781-0.159-1.234-0.159h-2.394v9.445h-2.012v-21.706h6.25
		c0.818,0,1.607,0.121,2.369,0.363c0.762,0.242,1.441,0.601,2.037,1.075s1.072,1.069,1.43,1.785c0.357,0.717,0.537,1.55,0.537,2.498
		c0,0.767-0.115,1.474-0.348,2.119c-0.233,0.645-0.563,1.219-0.992,1.718c-0.428,0.5-0.947,0.924-1.559,1.271
		c-0.611,0.349-1.3,0.608-2.066,0.78v0.061c0.293,0.121,0.561,0.277,0.803,0.469s0.478,0.424,0.703,0.696
		c0.229,0.272,0.453,0.585,0.674,0.938c0.224,0.354,0.455,0.757,0.697,1.211l3.646,6.721L461.287,361.5L461.287,361.5z
		 M451.479,341.641v8.582h3.604c0.727,0,1.393-0.105,1.998-0.317c0.604-0.212,1.123-0.515,1.551-0.908
		c0.43-0.394,0.762-0.868,1-1.423c0.236-0.555,0.355-1.181,0.355-1.877c0-1.262-0.406-2.253-1.22-2.975
		c-0.813-0.721-1.983-1.082-3.52-1.082H451.479z"/>
	<path fill="#FFFFFF" d="M467.344,361.5v-21.706h5.935c0.897,0,1.707,0.121,2.43,0.363c0.721,0.242,1.336,0.583,1.846,1.021
		c0.511,0.439,0.9,0.967,1.174,1.582c0.271,0.615,0.408,1.292,0.408,2.028c0,0.626-0.086,1.211-0.258,1.756
		s-0.418,1.042-0.742,1.491c-0.321,0.449-0.719,0.838-1.188,1.165c-0.47,0.328-1.002,0.588-1.599,0.779v0.061
		c0.728,0.071,1.39,0.248,1.984,0.53c0.595,0.282,1.104,0.651,1.527,1.104c0.424,0.455,0.752,0.987,0.983,1.598
		c0.232,0.611,0.349,1.279,0.349,2.006c0,0.918-0.166,1.758-0.498,2.52c-0.334,0.763-0.801,1.418-1.4,1.968
		c-0.602,0.551-1.313,0.977-2.143,1.279c-0.826,0.303-1.74,0.454-2.74,0.454L467.344,361.5L467.344,361.5z M469.355,341.641v7.705
		h2.815c0.736,0,1.402-0.097,1.998-0.288s1.105-0.47,1.529-0.833c0.424-0.363,0.748-0.802,0.977-1.316
		c0.228-0.515,0.34-1.095,0.34-1.74c0-2.352-1.463-3.527-4.391-3.527L469.355,341.641L469.355,341.641z M469.355,351.162v8.506
		h3.739c1.604,0,2.838-0.375,3.701-1.127c0.861-0.752,1.293-1.819,1.293-3.201c0-2.785-1.893-4.178-5.676-4.178H469.355z"/>
	<path fill="#FFFFFF" d="M484.66,361.5v-21.706h5.934c0.898,0,1.707,0.121,2.431,0.363c0.721,0.242,1.336,0.583,1.846,1.021
		c0.51,0.439,0.899,0.967,1.174,1.582c0.271,0.615,0.408,1.292,0.408,2.028c0,0.626-0.086,1.211-0.258,1.756
		s-0.418,1.042-0.742,1.491c-0.322,0.449-0.719,0.838-1.188,1.165c-0.469,0.328-1.002,0.588-1.598,0.779v0.061
		c0.727,0.071,1.389,0.248,1.984,0.53c0.595,0.282,1.104,0.651,1.526,1.104c0.424,0.455,0.752,0.987,0.984,1.598
		c0.231,0.611,0.348,1.279,0.348,2.006c0,0.918-0.166,1.758-0.498,2.52c-0.334,0.763-0.801,1.418-1.399,1.968
		c-0.603,0.551-1.314,0.977-2.144,1.279c-0.826,0.303-1.739,0.454-2.739,0.454L484.66,361.5L484.66,361.5z M486.672,341.641v7.705
		h2.816c0.735,0,1.401-0.097,1.998-0.288c0.596-0.191,1.104-0.47,1.528-0.833c0.425-0.363,0.748-0.802,0.978-1.316
		c0.227-0.515,0.34-1.095,0.34-1.74c0-2.352-1.463-3.527-4.391-3.527L486.672,341.641L486.672,341.641z M486.672,351.162v8.506h3.74
		c1.604,0,2.838-0.375,3.701-1.127c0.86-0.752,1.293-1.819,1.293-3.201c0-2.785-1.894-4.178-5.676-4.178H486.672z"/>
</g>
</svg>
